<?xml version="1.0" encoding="utf-8"?>
<!-- Generator: Adobe Illustrator 23.0.1, SVG Export Plug-In . SVG Version: 6.00 Build 0)  -->
<svg version="1.1" id="Layer_1" xmlns="http://www.w3.org/2000/svg" xmlns:xlink="http://www.w3.org/1999/xlink" x="0px" y="0px"
	 viewBox="0 0 259 48" style="enable-background:new 0 0 259 48;" xml:space="preserve">
<style type="text/css">
	.st0{fill:#979899;}
</style>
<g>
	<path class="st0" d="M58.2,27l4.4-9.6l4.2,9.6H58.2z M53.3,37.8l3.1-6.8h12l2.9,6.8l4.6,0L62.6,7.9L48.7,37.8H53.3z"/>
	<polygon class="st0" points="82.5,9.7 82.5,13.7 89,13.7 89,37.8 93.2,37.8 93.2,13.7 99.6,13.7 99.6,9.7 	"/>
	<polygon class="st0" points="115.1,9.7 110.8,9.7 110.8,37.8 115.1,37.8 115.1,24.7 127.2,24.7 127.2,37.8 131.5,37.8 131.5,9.7 
		127.2,9.7 127.2,20.7 115.1,20.7 	"/>
	<polygon class="st0" points="145.6,9.7 145.6,37.8 158.1,37.8 158.1,33.8 149.9,33.8 149.9,9.7 	"/>
	<polygon class="st0" points="185.1,9.7 169.6,9.7 169.6,37.8 185.1,37.8 185.1,33.8 173.8,33.8 173.8,24.4 184.7,24.4 184.7,20.4 
		173.8,20.4 173.8,13.7 185.1,13.7 	"/>
	<polygon class="st0" points="212.3,9.7 195.1,9.7 195.1,13.7 201.6,13.7 201.6,37.8 205.8,37.8 205.8,13.7 212.3,13.7 	"/>
	<path class="st0" d="M232.7,17.4l4.2,9.6l-8.5,0L232.7,17.4z M223.5,37.8l3.1-6.8h12l2.9,6.8h4.6L232.8,7.9l-13.9,29.9H223.5z"/>
	<path class="st0" d="M25.9,22.9l-2.5,8.7l-4.6,1.9L25.9,22.9l-7.5,5l-4.7-1.6L25.9,22.9l-9-1l-2.6-4.2L25.9,22.9l-6.3-6.5l0.7-4.9
		L25.9,22.9l-0.6-9l3.7-3.3L25.9,22.9l5.4-7.3l5-0.1L25.9,22.9l8.8-2.2l3.9,3.1L25.9,22.9l8.1,4l1,4.9L25.9,22.9l3.6,8.3l-2.4,4.4
		L25.9,22.9z M41,23c0-8.4-6.8-15.2-15.2-15.2c-8.4,0-15.2,6.8-15.2,15.2c0,8.4,6.8,15.2,15.2,15.2C34.2,38.2,41,31.4,41,23"/>
</g>
</svg>
